<svg xmlns="http://www.w3.org/2000/svg" viewBox="0 0 148.05 130.45"><defs><style>.cls-1{fill:#404041;}</style></defs><title>Asset 2</title><g id="Layer_2" data-name="Layer 2"><g id="Layer_1-2" data-name="Layer 1"><path class="cls-1" d="M143.34,107.53a4.71,4.71,0,0,0,4.71-4.71V4.71A4.71,4.71,0,0,0,143.34,0H4.71A4.71,4.71,0,0,0,0,4.71v98.11a4.71,4.71,0,0,0,4.71,4.71H62.12V121H50.83a4.71,4.71,0,0,0,0,9.42H97.22a4.71,4.71,0,1,0,0-9.42H85.93v-13.5ZM76.51,121h-5v-13.5h5Zm4.71-22.92H9.42V9.42H138.63V98.11Z"/><path class="cls-1" d="M12.71,13.64V93.89H135.34V13.64ZM85.22,71.73H24.44a2.4,2.4,0,1,1,0-4.8H85.22a2.4,2.4,0,1,1,0,4.8ZM123.61,62H24.44a2.4,2.4,0,0,1,0-4.8h99.17a2.4,2.4,0,1,1,0,4.8Zm0-11.22H24.44a2.4,2.4,0,1,1,0-4.79h99.17a2.4,2.4,0,1,1,0,4.79Zm0-11.71H24.44a2.4,2.4,0,1,1,0-4.8h99.17a2.4,2.4,0,1,1,0,4.8Z"/></g></g></svg>