<svg xmlns="http://www.w3.org/2000/svg" viewBox="0 0 144.74 114.65"><defs><style>.cls-1{fill:#404041;}</style></defs><title>Asset 1</title><g id="Layer_2" data-name="Layer 2"><g id="Layer_1-2" data-name="Layer 1"><path class="cls-1" d="M23.58,83c-.22,1.67-1.39,5.23-6.74,10.89a7.56,7.56,0,0,0-1.05,9.17,7.37,7.37,0,0,0,6.35,3.6,7.74,7.74,0,0,0,2.06-.28c10.27-2.84,17.57-8,21.37-15.15a80.75,80.75,0,0,0,12.59,1.46c9.52,6.5,21.77,10.07,34.67,10.07a68.72,68.72,0,0,0,12.64-1.17c3.52,6.18,10.12,10.6,19.37,12.88a7,7,0,0,0,1.63.19,6.78,6.78,0,0,0,4.37-11.94A14.8,14.8,0,0,1,125.48,94c12.28-7.4,19.26-18.49,19.26-30.81,0-14.69-10.36-27.89-27.16-34.79C108.31,11.75,86.52,0,61.17,0,27.44,0,0,20.8,0,46.37,0,60.72,8.77,74.26,23.58,83ZM122,41.36c8.41,5.63,13.34,13.48,13.34,21.86,0,9.57-6.15,18.3-16.87,24-.08,0-.14.1-.22.14a4.72,4.72,0,0,0-.52.35,2.5,2.5,0,0,0-.29.27,4.08,4.08,0,0,0-.36.36c-.09.11-.17.23-.25.35a3.51,3.51,0,0,0-.27.4c-.07.13-.13.27-.19.41a3.2,3.2,0,0,0-.17.43,4.56,4.56,0,0,0-.13.53c0,.11-.06.21-.07.32a.78.78,0,0,0,0,.09v0a20.89,20.89,0,0,0,2.2,10.72,13.28,13.28,0,0,1-5.5-6.89c0-.1-.09-.18-.13-.28a4.43,4.43,0,0,0-.2-.45,4.11,4.11,0,0,0-.24-.39c-.08-.13-.17-.25-.26-.37s-.21-.24-.32-.35-.2-.2-.31-.29-.26-.2-.39-.29l-.36-.22c-.14-.08-.28-.14-.43-.21s-.26-.11-.39-.15a4.05,4.05,0,0,0-.47-.12l-.42-.08a4,4,0,0,0-.49,0c-.15,0-.28,0-.43,0l-.5.08-.3,0a58.6,58.6,0,0,1-30-.44c26.08-5.3,45.33-23.36,45.33-44.78A34.76,34.76,0,0,0,122,41.36ZM61.17,9.42C83.7,9.42,102.9,19.75,110,34.13v0a27.46,27.46,0,0,1,2.93,12.22c0,20.37-23.22,36.95-51.76,36.95A69.92,69.92,0,0,1,44,81.21l-.29,0a4.34,4.34,0,0,0-.52-.08,2.67,2.67,0,0,0-.4,0,4.52,4.52,0,0,0-.52,0l-.39.07-.5.13-.36.14-.46.22-.33.21a3.91,3.91,0,0,0-.41.3,3.83,3.83,0,0,0-.29.28,2.9,2.9,0,0,0-.34.36l-.25.35a3.58,3.58,0,0,0-.25.42,3.17,3.17,0,0,0-.19.42c0,.1-.1.2-.13.3-1.47,4.47-4.86,8-10.12,10.57,6.87-9.68,4.63-15.55,3.85-17h0L32,77.71c-.06-.1-.13-.18-.19-.27A4.25,4.25,0,0,0,31.5,77a2.81,2.81,0,0,0-.34-.35c-.1-.1-.2-.2-.31-.29a4.39,4.39,0,0,0-.5-.34l-.22-.15c-13-7-20.71-18-20.71-29.51C9.42,26,32.64,9.42,61.17,9.42Z"/><path class="cls-1" d="M37.66,36.92h47a4.71,4.71,0,0,0,0-9.42h-47a4.71,4.71,0,1,0,0,9.42Z"/><path class="cls-1" d="M37.66,65.24h47a4.71,4.71,0,0,0,0-9.42h-47a4.71,4.71,0,1,0,0,9.42Z"/><path class="cls-1" d="M32,51.09H90.31a4.71,4.71,0,0,0,0-9.42H32a4.71,4.71,0,0,0,0,9.42Z"/></g></g></svg>