<svg xmlns="http://www.w3.org/2000/svg" viewBox="0 0 109.42 109.43"><defs><style>.cls-1{fill:#404041;}</style></defs><title>Asset 3</title><g id="Layer_2" data-name="Layer 2"><g id="Layer_1-2" data-name="Layer 1"><path class="cls-1" d="M.48,36.93c2,17.44,10.54,34.48,24,48s30.53,22,48,24c.73.08,1.47.15,2.21.21l.39,0c.13,0,.25,0,.38,0l.13,0a19,19,0,0,0,3.17.27c10.43,0,19.92-8.63,21.94-20.6.12-.66.2-1.33.27-2.06a4.71,4.71,0,0,0-3.9-5.08L64.36,76.16A4.71,4.71,0,0,0,59,79.68c-.17.72-.31,1.38-.42,2s-.15,1.11-.21,1.66A77,77,0,0,1,40,69.66,78.23,78.23,0,0,1,26.15,51c.52-.06,1-.11,1.57-.2s1.32-.25,2-.42a4.71,4.71,0,0,0,3.51-5.36L27.73,12.34a4.71,4.71,0,0,0-5.08-3.9c-.74.07-1.41.16-2.06.27C7.7,10.89-1.3,21.72.15,33.06Q.27,35,.48,36.93ZM90.69,90.16c-2.23,6.47-7.83,10.68-13.51,9.71a10.76,10.76,0,0,1-7.41-5.37,15.82,15.82,0,0,1-2.16-8.24ZM33.29,76.32a85.7,85.7,0,0,0,26.16,18c.25.77.53,1.51.85,2.25A75.73,75.73,0,0,1,31.18,78.24a75.56,75.56,0,0,1-18.33-29.1,24.33,24.33,0,0,0,2.34.87A87.16,87.16,0,0,0,33.29,76.32Zm-14-57.59,3.9,23.09a16.67,16.67,0,0,1-3.47-.34l-.13,0a15.55,15.55,0,0,1-4.64-1.8,10.82,10.82,0,0,1-5.37-7.4c-.05-.85-.08-1.7-.08-2.54C9.91,25,13.76,20.63,19.26,18.73Z"/><path class="cls-1" d="M55.27,30.28A23.9,23.9,0,0,1,79.14,54.16a4.71,4.71,0,0,0,9.42,0,33.32,33.32,0,0,0-33.29-33.3,4.71,4.71,0,0,0,0,9.42Z"/><path class="cls-1" d="M55.27,9.42A44.79,44.79,0,0,1,100,54.16a4.71,4.71,0,0,0,9.42,0A54.21,54.21,0,0,0,55.27,0a4.71,4.71,0,0,0,0,9.42Z"/></g></g></svg>